# xmcd CD database file
#
# Track frame offsets:
#	150
#	13187
#	23107
#	40737
#	53615
#	64177
#	74935
#	90432
#	101627
#	112912
#	124052
#	143587
#	152405
#	161552
#	179095
#	188242
#	203885
#	209855
#
# Disc length: 2977 seconds
#
# Revision: 1
# Processed by: cddbd v1.5.1PL0 Copyright (c) Steve Scherf et al.
# Submitted via: CDex 1.51
#
DISCID=030b9f12
DTITLE=Errol Dixon - Livin With The Blues
DYEAR=1992
DGENRE=Blues
TTITLE0=Lonely Blues
TTITLE1=Back Stroke
TTITLE2=Lucky Old Sun
TTITLE3=Tell Me What They Are Saying Isn't True
TTITLE4=The Fly
TTITLE5=Nobody Knows The Trouble I've Seen
TTITLE6=The Way I Feel
TTITLE7=Jump For Joy
TTITLE8=Living With The Blues
TTITLE9=Feeling Blue
TTITLE10=A Fool In Love
TTITLE11=Up And Down
TTITLE12=Jmabalaya
TTITLE13=The Spirit Of Montegobay
TTITLE14=Scratch My Bag
TTITLE15=Eye For The Sparrow
TTITLE16=Rock My Soul
TTITLE17=I Can't Live Without You
EXTD=YEAR: 1992
EXTT0=
EXTT1=
EXTT2=
EXTT3=
EXTT4=
EXTT5=
EXTT6=
EXTT7=
EXTT8=
EXTT9=
EXTT10=
EXTT11=
EXTT12=
EXTT13=
EXTT14=
EXTT15=
EXTT16=
EXTT17=
PLAYORDER=
